<?xml version="1.0" encoding="UTF-8"?>
<!DOCTYPE svg PUBLIC "-//W3C//DTD SVG 1.1//EN" "http://www.w3.org/Graphics/SVG/1.1/DTD/svg11.dtd">
<svg xmlns="http://www.w3.org/2000/svg" version="1.1" width="128px" height="128px" style="shape-rendering:geometricPrecision; text-rendering:geometricPrecision; image-rendering:optimizeQuality; fill-rule:evenodd; clip-rule:evenodd" xmlns:xlink="http://www.w3.org/1999/xlink">
<g><path style="opacity:1" fill="#ee2772" d="M 91.5,28.5 C 94.5616,29.2678 96.2283,31.2678 96.5,34.5C 95.83,37.5031 94.1633,38.1697 91.5,36.5C 91.6716,35.5084 91.3382,34.8417 90.5,34.5C 90.5,33.8333 90.1667,33.5 89.5,33.5C 89.5,32.8333 89.1667,32.5 88.5,32.5C 88.5,31.8333 88.1667,31.5 87.5,31.5C 87.3433,30.1266 87.51,28.7932 88,27.5C 89.0113,28.3366 90.1779,28.67 91.5,28.5 Z"/></g>
<g><path style="opacity:1" fill="#ef3379" d="M 62.5,43.5 C 62.5,44.8333 62.5,46.1667 62.5,47.5C 62.1667,47.5 61.8333,47.5 61.5,47.5C 57.6496,44.7392 53.9829,41.7392 50.5,38.5C 49.9202,36.2512 48.5869,34.5846 46.5,33.5C 41.021,28.9696 36.3543,29.6363 32.5,35.5C 31.5088,42.3134 31.1755,49.3134 31.5,56.5C 30.7321,55.7375 30.2321,54.7375 30,53.5C 29.5004,46.5079 29.3337,39.5079 29.5,32.5C 34.8013,25.6211 41.1346,24.7877 48.5,30C 53.0355,34.7033 57.7021,39.2033 62.5,43.5 Z"/></g>
<g><path style="opacity:1" fill="#fb9c38" d="M 46.5,33.5 C 48.5869,34.5846 49.9202,36.2512 50.5,38.5C 48.4131,37.4154 47.0798,35.7488 46.5,33.5 Z"/></g>
<g><path style="opacity:0.824" fill="#f65692" d="M 91.5,28.5 C 90.1779,28.67 89.0113,28.3366 88,27.5C 87.51,28.7932 87.3433,30.1266 87.5,31.5C 87.1667,31.5 86.8333,31.5 86.5,31.5C 83.0564,29.9095 80.0564,30.5762 77.5,33.5C 73.5644,35.7657 70.2311,38.7657 67.5,42.5C 66.1667,44.5 64.5,46.1667 62.5,47.5C 62.5,46.1667 62.5,44.8333 62.5,43.5C 66.9703,38.1977 71.9703,33.3644 77.5,29C 82.2205,25.981 86.8871,25.8143 91.5,28.5 Z"/></g>
<g><path style="opacity:1" fill="#fdef8a" d="M 46.5,33.5 C 47.0798,35.7488 48.4131,37.4154 50.5,38.5C 50.5,39.1667 50.5,39.8333 50.5,40.5C 51.075,42.4113 52.075,44.078 53.5,45.5C 53.2648,46.0967 52.7648,46.4301 52,46.5C 44.941,44.0549 38.441,40.7216 32.5,36.5C 32.5,36.1667 32.5,35.8333 32.5,35.5C 36.3543,29.6363 41.021,28.9696 46.5,33.5 Z"/></g>
<g><path style="opacity:1" fill="#f9d196" d="M 77.5,33.5 C 74.7689,37.2343 71.4356,40.2343 67.5,42.5C 70.2311,38.7657 73.5644,35.7657 77.5,33.5 Z"/></g>
<g><path style="opacity:1" fill="#fdd04d" d="M 89.5,36.5 C 86.4141,41.0917 82.7475,45.2583 78.5,49C 73.1667,53.6667 67.8333,58.3333 62.5,63C 58.9938,66.026 55.3271,66.1927 51.5,63.5C 50.5836,63.5427 49.9169,63.8761 49.5,64.5C 48.8333,64.5 48.5,64.8333 48.5,65.5C 48.1667,65.5 47.8333,65.5 47.5,65.5C 45.8868,65.9443 44.7202,66.9443 44,68.5C 40.5539,65.5125 36.7206,64.8458 32.5,66.5C 32.5,63.5 32.5,60.5 32.5,57.5C 33.3636,58.6883 34.3636,59.8549 35.5,61C 40.5186,61.3348 45.5186,61.8348 50.5,62.5C 52.6928,61.4464 54.1928,61.7797 55,63.5C 61.1937,59.4326 67.6937,54.9326 74.5,50C 78.7612,44.6036 83.7612,40.1036 89.5,36.5 Z"/></g>
<g><path style="opacity:1" fill="#fdef91" d="M 86.5,31.5 C 86.5858,32.4959 86.2524,33.3292 85.5,34C 82.0073,34.9419 78.674,36.2752 75.5,38C 71.5,42 67.5,46 63.5,50C 62.184,50.5281 61.5173,50.0281 61.5,48.5C 61.5,48.1667 61.5,47.8333 61.5,47.5C 61.8333,47.5 62.1667,47.5 62.5,47.5C 64.5,46.1667 66.1667,44.5 67.5,42.5C 71.4356,40.2343 74.7689,37.2343 77.5,33.5C 80.0564,30.5762 83.0564,29.9095 86.5,31.5 Z"/></g>
<g><path style="opacity:1" fill="#fdc847" d="M 89.5,33.5 C 90.1667,33.5 90.5,33.8333 90.5,34.5C 90.9975,38.2194 90.1642,41.5527 88,44.5C 82.2714,50.397 76.4381,56.0637 70.5,61.5C 66.5276,62.9492 63.1943,65.4492 60.5,69C 58.8034,69.3845 57.1368,69.2178 55.5,68.5C 53.7541,66.7484 51.7541,65.4151 49.5,64.5C 49.9169,63.8761 50.5836,63.5427 51.5,63.5C 55.3271,66.1927 58.9938,66.026 62.5,63C 67.8333,58.3333 73.1667,53.6667 78.5,49C 82.7475,45.2583 86.4141,41.0917 89.5,36.5C 89.5,35.5 89.5,34.5 89.5,33.5 Z"/></g>
<g><path style="opacity:1" fill="#fdd652" d="M 88.5,32.5 C 89.1667,32.5 89.5,32.8333 89.5,33.5C 89.5,34.5 89.5,35.5 89.5,36.5C 83.7612,40.1036 78.7612,44.6036 74.5,50C 67.6937,54.9326 61.1937,59.4326 55,63.5C 54.1928,61.7797 52.6928,61.4464 50.5,62.5C 45.5186,61.8348 40.5186,61.3348 35.5,61C 34.3636,59.8549 33.3636,58.6883 32.5,57.5C 32.5,56.8333 32.5,56.1667 32.5,55.5C 39.628,57.6614 46.9613,59.328 54.5,60.5C 60.6019,59.3015 64.9352,55.9682 67.5,50.5C 74.1072,45.5181 80.7738,40.5181 87.5,35.5C 88.3857,34.675 88.719,33.675 88.5,32.5 Z"/></g>
<g><path style="opacity:1" fill="#fdea79" d="M 32.5,36.5 C 38.441,40.7216 44.941,44.0549 52,46.5C 52.7648,46.4301 53.2648,46.0967 53.5,45.5C 55.9137,46.4056 56.747,48.0722 56,50.5C 54.3182,50.8068 52.6515,51.1402 51,51.5C 43.6066,49.0743 37.44,45.0743 32.5,39.5C 32.5,38.5 32.5,37.5 32.5,36.5 Z"/></g>
<g><path style="opacity:1" fill="#fdbf3e" d="M 90.5,34.5 C 91.3382,34.8417 91.6716,35.5084 91.5,36.5C 91.5,42.8333 91.5,49.1667 91.5,55.5C 90.8333,55.5 90.5,55.1667 90.5,54.5C 90.6243,47.0821 89.1243,47.0821 86,54.5C 82.227,58.1153 78.0604,61.1153 73.5,63.5C 72.2613,63.0576 71.2613,62.3909 70.5,61.5C 76.4381,56.0637 82.2714,50.397 88,44.5C 90.1642,41.5527 90.9975,38.2194 90.5,34.5 Z"/></g>
<g><path style="opacity:1" fill="#fee267" d="M 32.5,39.5 C 37.44,45.0743 43.6066,49.0743 51,51.5C 52.6515,51.1402 54.3182,50.8068 56,50.5C 56.747,48.0722 55.9137,46.4056 53.5,45.5C 52.075,44.078 51.075,42.4113 50.5,40.5C 53.9395,43.2726 56.9395,46.2726 59.5,49.5C 59.6567,50.8734 59.49,52.2068 59,53.5C 57.2151,54.2401 55.3817,54.9067 53.5,55.5C 48.7814,55.1468 44.1147,53.8134 39.5,51.5C 35.9526,49.3044 33.6193,46.3044 32.5,42.5C 32.5,41.5 32.5,40.5 32.5,39.5 Z"/></g>
<g><path style="opacity:0.759" fill="#9c153f" d="M 96.5,34.5 C 97.497,53.6595 97.8303,72.9928 97.5,92.5C 95.9557,92.2969 94.6223,91.6302 93.5,90.5C 92.8182,91.2427 92.1515,91.9094 91.5,92.5C 91.5,86.5 91.5,80.5 91.5,74.5C 91.5,71.1667 91.5,67.8333 91.5,64.5C 91.5,61.5 91.5,58.5 91.5,55.5C 91.5,49.1667 91.5,42.8333 91.5,36.5C 94.1633,38.1697 95.83,37.5031 96.5,34.5 Z"/></g>
<g><path style="opacity:1" fill="#fc9e37" d="M 50.5,38.5 C 53.9829,41.7392 57.6496,44.7392 61.5,47.5C 61.5,47.8333 61.5,48.1667 61.5,48.5C 60.8333,48.8333 60.1667,49.1667 59.5,49.5C 56.9395,46.2726 53.9395,43.2726 50.5,40.5C 50.5,39.8333 50.5,39.1667 50.5,38.5 Z"/></g>
<g><path style="opacity:1" fill="#fdda59" d="M 32.5,42.5 C 33.6193,46.3044 35.9526,49.3044 39.5,51.5C 39.3893,52.1174 39.056,52.6174 38.5,53C 49.114,59.3227 58.7807,58.4894 67.5,50.5C 64.9352,55.9682 60.6019,59.3015 54.5,60.5C 46.9613,59.328 39.628,57.6614 32.5,55.5C 32.5,51.1667 32.5,46.8333 32.5,42.5 Z"/></g>
<g><path style="opacity:1" fill="#fedf61" d="M 86.5,31.5 C 86.8333,31.5 87.1667,31.5 87.5,31.5C 88.1667,31.5 88.5,31.8333 88.5,32.5C 88.719,33.675 88.3857,34.675 87.5,35.5C 80.7738,40.5181 74.1072,45.5181 67.5,50.5C 58.7807,58.4894 49.114,59.3227 38.5,53C 39.056,52.6174 39.3893,52.1174 39.5,51.5C 44.1147,53.8134 48.7814,55.1468 53.5,55.5C 55.3817,54.9067 57.2151,54.2401 59,53.5C 59.49,52.2068 59.6567,50.8734 59.5,49.5C 60.1667,49.1667 60.8333,48.8333 61.5,48.5C 61.5173,50.0281 62.184,50.5281 63.5,50C 67.5,46 71.5,42 75.5,38C 78.674,36.2752 82.0073,34.9419 85.5,34C 86.2524,33.3292 86.5858,32.4959 86.5,31.5 Z"/></g>
<g><path style="opacity:1" fill="#fcad39" d="M 90.5,54.5 C 90.5,55.1667 90.8333,55.5 91.5,55.5C 91.5,58.5 91.5,61.5 91.5,64.5C 87.0594,67.4659 83.3927,71.2992 80.5,76C 79.552,76.4828 78.552,76.6495 77.5,76.5C 77.5979,78.5529 76.9313,80.2196 75.5,81.5C 75.5,76.1667 75.5,70.8333 75.5,65.5C 76.9778,65.762 78.3112,65.4287 79.5,64.5C 83.2326,61.0942 86.8992,57.7609 90.5,54.5 Z"/></g>
<g><path style="opacity:1" fill="#fab33e" d="M 90.5,54.5 C 86.8992,57.7609 83.2326,61.0942 79.5,64.5C 78.3112,65.4287 76.9778,65.762 75.5,65.5C 75.1667,65.5 74.8333,65.5 74.5,65.5C 73.3991,64.4017 72.0657,64.235 70.5,65C 68.2941,67.0367 66.2941,69.2034 64.5,71.5C 64.1667,72.5 63.5,73.1667 62.5,73.5C 59.3567,73.031 57.0233,71.3644 55.5,68.5C 57.1368,69.2178 58.8034,69.3845 60.5,69C 63.1943,65.4492 66.5276,62.9492 70.5,61.5C 71.2613,62.3909 72.2613,63.0576 73.5,63.5C 78.0604,61.1153 82.227,58.1153 86,54.5C 89.1243,47.0821 90.6243,47.0821 90.5,54.5 Z"/></g>
<g><path style="opacity:1" fill="#fca337" d="M 91.5,64.5 C 91.5,67.8333 91.5,71.1667 91.5,74.5C 90.0533,77.1159 88.0533,79.2826 85.5,81C 86.1667,81.3333 86.8333,81.6667 87.5,82C 86.1667,83.3333 84.8333,84.6667 83.5,86C 84.5171,87.0495 84.6838,88.2161 84,89.5C 81.7203,91.6139 79.887,93.9472 78.5,96.5C 77.2101,95.9423 76.3768,94.9423 76,93.5C 75.5012,89.5138 75.3345,85.5138 75.5,81.5C 76.9313,80.2196 77.5979,78.5529 77.5,76.5C 78.552,76.6495 79.552,76.4828 80.5,76C 83.3927,71.2992 87.0594,67.4659 91.5,64.5 Z"/></g>
<g><path style="opacity:1" fill="#6d0b2a" d="M 74.5,65.5 C 74.5328,69.8689 74.1995,74.2022 73.5,78.5C 71.8998,80.7026 70.5665,83.036 69.5,85.5C 69.6653,81.8183 69.4986,78.1516 69,74.5C 68.6174,75.056 68.1174,75.3893 67.5,75.5C 63.8649,75.3444 63.5315,74.1777 66.5,72C 65.9056,71.5357 65.2389,71.369 64.5,71.5C 66.2941,69.2034 68.2941,67.0367 70.5,65C 72.0657,64.235 73.3991,64.4017 74.5,65.5 Z"/></g>
<g><path style="opacity:1" fill="#db126a" d="M 29.5,32.5 C 29.3337,39.5079 29.5004,46.5079 30,53.5C 30.2321,54.7375 30.7321,55.7375 31.5,56.5C 31.3335,68.5046 31.5001,80.5046 32,92.5C 33.1764,94.1957 34.343,95.8624 35.5,97.5C 33.4496,97.0388 31.4496,96.3721 29.5,95.5C 28.7025,95.9569 28.3691,96.6236 28.5,97.5C 27.3373,76.6707 27.1707,55.6707 28,34.5C 28.2784,33.5842 28.7784,32.9175 29.5,32.5 Z"/></g>
<g><path style="opacity:1" fill="#7b0a2e" d="M 49.5,64.5 C 51.7541,65.4151 53.7541,66.7484 55.5,68.5C 57.0233,71.3644 59.3567,73.031 62.5,73.5C 61.0536,74.6129 59.3869,74.7796 57.5,74C 54.2906,69.7462 52.2906,69.9128 51.5,74.5C 52.0211,79.5239 52.6877,84.5239 53.5,89.5C 53,91.5 52.5,93.5 52,95.5C 50.1899,92.9824 48.3566,92.9824 46.5,95.5C 46.4614,94.2438 46.9614,93.2438 48,92.5C 48.4998,83.5062 48.6664,74.5062 48.5,65.5C 48.5,64.8333 48.8333,64.5 49.5,64.5 Z"/></g>
<g><path style="opacity:1" fill="#fb9d34" d="M 91.5,74.5 C 91.5,80.5 91.5,86.5 91.5,92.5C 91.1667,93.1667 90.8333,93.8333 90.5,94.5C 87.4193,97.1925 83.7527,98.1925 79.5,97.5C 78.8333,97.5 78.5,97.1667 78.5,96.5C 79.887,93.9472 81.7203,91.6139 84,89.5C 84.6838,88.2161 84.5171,87.0495 83.5,86C 84.8333,84.6667 86.1667,83.3333 87.5,82C 86.8333,81.6667 86.1667,81.3333 85.5,81C 88.0533,79.2826 90.0533,77.1159 91.5,74.5 Z"/></g>
<g><path style="opacity:1" fill="#fab63f" d="M 32.5,35.5 C 32.5,35.8333 32.5,36.1667 32.5,36.5C 32.5,37.5 32.5,38.5 32.5,39.5C 32.5,40.5 32.5,41.5 32.5,42.5C 32.5,46.8333 32.5,51.1667 32.5,55.5C 32.5,56.1667 32.5,56.8333 32.5,57.5C 32.5,60.5 32.5,63.5 32.5,66.5C 30.6406,75.3154 33.6406,77.6487 41.5,73.5C 43.0982,73.6097 44.7648,73.943 46.5,74.5C 47.4841,71.5719 47.8174,68.5719 47.5,65.5C 47.8333,65.5 48.1667,65.5 48.5,65.5C 48.6664,74.5062 48.4998,83.5062 48,92.5C 46.9614,93.2438 46.4614,94.2438 46.5,95.5C 43.0804,97.2221 39.4137,97.8887 35.5,97.5C 34.343,95.8624 33.1764,94.1957 32,92.5C 31.5001,80.5046 31.3335,68.5046 31.5,56.5C 31.1755,49.3134 31.5088,42.3134 32.5,35.5 Z"/></g>
<g><path style="opacity:1" fill="#fdca47" d="M 47.5,65.5 C 47.8174,68.5719 47.4841,71.5719 46.5,74.5C 44.7648,73.943 43.0982,73.6097 41.5,73.5C 33.6406,77.6487 30.6406,75.3154 32.5,66.5C 36.7206,64.8458 40.5539,65.5125 44,68.5C 44.7202,66.9443 45.8868,65.9443 47.5,65.5 Z"/></g>
<g><path style="opacity:1" fill="#8a053d" d="M 73.5,78.5 C 72.9979,83.8384 72.8312,89.1717 73,94.5C 74.6667,95.7332 76.1667,97.0665 77.5,98.5C 75.2341,98.8588 73.4007,98.1922 72,96.5C 71.6012,96.7284 71.4346,97.0618 71.5,97.5C 69.7501,93.8171 69.0834,89.8171 69.5,85.5C 70.5665,83.036 71.8998,80.7026 73.5,78.5 Z"/></g>
<g><path style="opacity:1" fill="#c7274f" d="M 74.5,65.5 C 74.8333,65.5 75.1667,65.5 75.5,65.5C 75.5,70.8333 75.5,76.1667 75.5,81.5C 75.3345,85.5138 75.5012,89.5138 76,93.5C 76.3768,94.9423 77.2101,95.9423 78.5,96.5C 78.5,97.1667 78.8333,97.5 79.5,97.5C 81.6074,98.4682 83.9407,98.8016 86.5,98.5C 83.6038,99.7752 80.6038,99.7752 77.5,98.5C 76.1667,97.0665 74.6667,95.7332 73,94.5C 72.8312,89.1717 72.9979,83.8384 73.5,78.5C 74.1995,74.2022 74.5328,69.8689 74.5,65.5 Z"/></g>
<g><path style="opacity:0.996" fill="#60082c" d="M 97.5,92.5 C 95.3014,105.21 88.3014,109.044 76.5,104C 74.2101,102.223 72.5434,100.056 71.5,97.5C 71.4346,97.0618 71.6012,96.7284 72,96.5C 73.4007,98.1922 75.2341,98.8588 77.5,98.5C 80.6038,99.7752 83.6038,99.7752 86.5,98.5C 88.8333,98.1667 90.1667,96.8333 90.5,94.5C 90.8333,93.8333 91.1667,93.1667 91.5,92.5C 92.1515,91.9094 92.8182,91.2427 93.5,90.5C 94.6223,91.6302 95.9557,92.2969 97.5,92.5 Z"/></g>
<g><path style="opacity:1" fill="#65082d" d="M 62.5,73.5 C 63.5,73.1667 64.1667,72.5 64.5,71.5C 65.2389,71.369 65.9056,71.5357 66.5,72C 63.5315,74.1777 63.8649,75.3444 67.5,75.5C 65.7838,77.4474 63.6171,78.7807 61,79.5C 58.961,77.1255 56.6277,75.1255 54,73.5C 54.5142,80.7944 54.5142,88.1277 54,95.5C 50.5763,104.915 44.0763,108.081 34.5,105C 31.1828,103.52 29.1828,101.02 28.5,97.5C 28.3691,96.6236 28.7025,95.9569 29.5,95.5C 31.4496,96.3721 33.4496,97.0388 35.5,97.5C 38.6848,100.087 42.0181,100.087 45.5,97.5C 46.2975,97.0431 46.6309,96.3764 46.5,95.5C 48.3566,92.9824 50.1899,92.9824 52,95.5C 52.5,93.5 53,91.5 53.5,89.5C 52.6877,84.5239 52.0211,79.5239 51.5,74.5C 52.2906,69.9128 54.2906,69.7462 57.5,74C 59.3869,74.7796 61.0536,74.6129 62.5,73.5 Z"/></g>
<g><path style="opacity:1" fill="#c8452b" d="M 46.5,95.5 C 46.6309,96.3764 46.2975,97.0431 45.5,97.5C 42.0181,100.087 38.6848,100.087 35.5,97.5C 39.4137,97.8887 43.0804,97.2221 46.5,95.5 Z"/></g>
<g><path style="opacity:1" fill="#d45c26" d="M 90.5,94.5 C 90.1667,96.8333 88.8333,98.1667 86.5,98.5C 83.9407,98.8016 81.6074,98.4682 79.5,97.5C 83.7527,98.1925 87.4193,97.1925 90.5,94.5 Z"/></g>
</svg>
